<?xml version="1.0" standalone="no"?><!DOCTYPE svg PUBLIC "-//W3C//DTD SVG 1.1//EN" "http://www.w3.org/Graphics/SVG/1.1/DTD/svg11.dtd"><svg t="1584075187638" class="icon" viewBox="0 0 1024 1024" version="1.1" xmlns="http://www.w3.org/2000/svg" p-id="10647" xmlns:xlink="http://www.w3.org/1999/xlink" width="200" height="200"><defs><style type="text/css"></style></defs><path d="M852.096 192.256v667.392H191.5904V192.256h660.5056z m0-63.812267H191.5904c-34.901333 0-63.146667 28.535467-63.146667 63.803734v667.392c0 35.2768 28.245333 63.812267 63.146667 63.812266h660.590933c34.909867 0 63.1552-28.535467 63.1552-63.812266V192.256c-0.085333-35.268267-28.330667-63.803733-63.240533-63.803733z m-137.275733 365.994667H553.864533V331.8272c0-17.6384-14.122667-31.906133-31.581866-31.906133-17.4592 0-31.573333 14.267733-31.573334 31.906133v162.6112H328.866133c-17.450667 0-31.573333 14.267733-31.573333 31.906133s14.122667 31.906133 31.573333 31.906134h161.8432v161.723733c0 17.6384 14.114133 31.914667 31.573334 31.914667 17.4592 0 31.573333-14.276267 31.573333-31.914667V558.250667h160.964267c17.450667 0 31.573333-14.267733 31.573333-31.906134s-14.122667-31.906133-31.573333-31.906133z" p-id="10648"></path></svg>